<svg xmlns="http://www.w3.org/2000/svg" xmlns:xlink="http://www.w3.org/1999/xlink" width="128" height="128" viewBox="0 0 128 128"><linearGradient id="a" x1="36" x2="60" y1="68" y2="68" gradientUnits="userSpaceOnUse"><stop offset="0" stop-color="#ed336c"/><stop offset="1" stop-color="#ffa348"/></linearGradient><linearGradient id="b" x1="72" x2="96" y1="68" y2="68" gradientTransform="matrix(0 1 -1 0 144 -32)" gradientUnits="userSpaceOnUse"><stop offset="0" stop-color="#404ce6"/><stop offset="1" stop-color="#c061cb"/></linearGradient><linearGradient id="c" x1="68.849" x2="95.258" y1="84" y2="84" gradientUnits="userSpaceOnUse"><stop offset="0" stop-color="#33d1c6"/><stop offset="1" stop-color="#1c25d8"/></linearGradient><path fill="#c0bfbc" d="m 44 16 l 8 -8 h 24 l 8 8 z m 0 0"/><path fill="#f6f5f4" d="m 52 8 l -8 8 v 16 h 8 z m 0 0"/><path fill="#f6f5f4" d="m 76 8 l 8 8 v 16 h -8 z m 0 0"/><path fill="#deddda" d="m 16 72 h 96 c 4.417969 0 8 3.582031 8 8 v 28 c 0 4.417969 -3.582031 8 -8 8 h -96 c -4.417969 0 -8 -3.582031 -8 -8 v -28 c 0 -4.417969 3.582031 -8 8 -8 z m 0 0"/><path fill="#e5e5e1" d="m 8 28 h 112 v 80 h -112 z m 0 0"/><path fill="#f6f5f4" d="m 8 68 h 112 v 40 h -112 z m 0 0"/><path fill="url(#a)" d="m 44 56 h 8 c 4.417969 0 8 3.582031 8 8 v 8 c 0 4.417969 -3.582031 8 -8 8 h -8 c -4.417969 0 -8 -3.582031 -8 -8 v -8 c 0 -4.417969 3.582031 -8 8 -8 z m 0 0"/><path fill="url(#b)" d="m 76 64 c -6.628906 0 -12 -5.371094 -12 -12 s 5.371094 -12 12 -12 s 12 5.371094 12 12 s -5.371094 12 -12 12 z m 0 0"/><path fill="url(#c)" d="m 82.789062 70.976562 l -17.578124 10.046876 c -1.070313 0.609374 -1.730469 1.746093 -1.730469 2.976562 s 0.660156 2.367188 1.730469 2.976562 l 17.578124 10.046876 c 1.078126 0.617187 2.402344 0.609374 3.476563 -0.011719 c 1.074219 -0.625 1.734375 -1.769531 1.734375 -3.011719 v -20 c 0 -1.242188 -0.660156 -2.386719 -1.734375 -3.011719 c -1.074219 -0.621093 -2.398437 -0.628906 -3.476563 -0.011719 z m 0 0"/></svg>