<svg xmlns="http://www.w3.org/2000/svg" xmlns:svg="http://www.w3.org/2000/svg" id="svg36018" width="16" height="16" version="1.1" viewBox="0 0 16 16"><metadata id="metadata36015"/><g id="layer1" transform="translate(0,-292.76665)"><g id="g833" transform="translate(2.4999999e-8,292.76665)"><path style="fill:#888a85;fill-opacity:1;stroke:none;stroke-width:1" id="path8" d="M 6.6919998,13.645333 2.4493333,9.3239998 a 0.33333333,0.33333333 0 0 1 0,-0.4706667 L 3.8799999,7.4506665 a 0.33333333,0.33333333 0 0 1 0.472,0 L 6.6373331,9.7826664 14.717333,1.0746666 A 3.9746666,3.9746666 0 0 0 12,-4.9999999e-8 H 3.9999999 A 3.9999999,3.9999999 0 0 0 -4.9999999e-8,3.9999999 V 12 A 3.9999999,3.9999999 0 0 0 3.9999999,16 H 12 a 3.9999999,3.9999999 0 0 0 4,-4 V 3.9999999 C 16,3.8813332 15.97467,3.7706666 15.96533,3.6546666 Z" class="a"/></g></g></svg>